STARTFONT 2.1
COMMENT
COMMENT Converted from OpenType font "Q:\font stuff\winfont\LCD Regular.ttf" by "otf2bdf 3.0".
COMMENT
FONT -FreeType-LCD-Medium-R-Normal--51-510-72-72-P-247-ISO10646-1
SIZE 51 72 72
FONTBOUNDINGBOX 33 40 0 0
STARTPROPERTIES 19
FOUNDRY "FreeType"
FAMILY_NAME "LCD"
WEIGHT_NAME "Medium"
SLANT "R"
SETWIDTH_NAME "Normal"
ADD_STYLE_NAME ""
PIXEL_SIZE 42
POINT_SIZE 510
RESOLUTION_X 72
RESOLUTION_Y 72
SPACING "P"
AVERAGE_WIDTH 247
CHARSET_REGISTRY "ISO10646"
CHARSET_ENCODING "1"
FONT_ASCENT 41
FONT_DESCENT 2
COPYRIGHT "LCD : wpda-002 : Typeface&data(C)1998 waap designs. All Rights Reserved."
_OTF_FONTFILE "Q:\font stuff\winfont\LCD Regular.ttf"
_OTF_PSNAME "LCD-Regular"
ENDPROPERTIES
CHARS 100
STARTCHAR 0020
ENCODING 32
SWIDTH 509 0
DWIDTH 26 0
BBX 0 0 0 0
BITMAP
ENDCHAR
STARTCHAR 0021
ENCODING 33
SWIDTH 705 0
DWIDTH 36 0
BBX 6 39 15 1
BITMAP
FC
FC
FC
FC
FC
FC
FC
00
FC
FC
FC
FC
FC
FC
FC
00
FC
FC
FC
FC
FC
FC
FC
00
00
00
00
00
00
00
00
00
FC
FC
FC
FC
FC
FC
FC
ENDCHAR
STARTCHAR 0022
ENCODING 34
SWIDTH 686 0
DWIDTH 35 0
BBX 18 15 8 25
BITMAP
F80FC0
F80FC0
F80FC0
F80FC0
F80FC0
F80FC0
F80FC0
000000
F80FC0
F80FC0
F80FC0
F80FC0
F80FC0
F80FC0
F80FC0
ENDCHAR
STARTCHAR 0023
ENCODING 35
SWIDTH 705 0
DWIDTH 36 0
BBX 31 39 2 1
BITMAP
01F01F80
01F01F80
01F01F80
01F01F80
01F01F80
01F01F80
01F01F80
00000000
FDF7DFBE
FDF7DFBE
FDF7DFBE
FDF7DFBE
FDF7DFBE
FDF7DFBE
FDF7DFBE
00000000
01F01F80
01F01F80
01F01F80
01F01F80
01F01F80
01F01F80
01F01F80
00000000
FDF7DFBE
FDF7DFBE
FDF7DFBE
FDF7DFBE
FDF7DFBE
FDF7DFBE
FDF7DFBE
00000000
01F01F80
01F01F80
01F01F80
01F01F80
01F01F80
01F01F80
01F01F80
ENDCHAR
STARTCHAR 0024
ENCODING 36
SWIDTH 705 0
DWIDTH 36 0
BBX 31 39 2 1
BITMAP
01F7DFBE
01F7DFBE
01F7DFBE
01F7DFBE
01F7DFBE
01F7DFBE
01F7DFBE
00000000
FC07C000
FC07C000
FC07C000
FC07C000
FC07C000
FC07C000
FC07C000
00000000
01F7DF80
01F7DF80
01F7DF80
01F7DF80
01F7DF80
01F7DF80
01F7DF80
00000000
0007C03E
0007C03E
0007C03E
0007C03E
0007C03E
0007C03E
0007C03E
00000000
FDF7DF80
FDF7DF80
FDF7DF80
FDF7DF80
FDF7DF80
FDF7DF80
FDF7DF80
ENDCHAR
STARTCHAR 0025
ENCODING 37
SWIDTH 705 0
DWIDTH 36 0
BBX 31 39 2 1
BITMAP
FC00003E
FC00003E
FC00003E
FC00003E
FC00003E
FC00003E
FC00003E
00000000
FC001F80
FC001F80
FC001F80
FC001F80
FC001F80
FC001F80
FC001F80
00000000
0007E000
0007E000
0007E000
0007E000
0007E000
0007E000
0007E000
00000000
01F0003E
01F0003E
01F0003E
01F0003E
01F0003E
01F0003E
01F0003E
00000000
FC00003E
FC00003E
FC00003E
FC00003E
FC00003E
FC00003E
FC00003E
ENDCHAR
STARTCHAR 0026
ENCODING 38
SWIDTH 705 0
DWIDTH 36 0
BBX 31 39 2 1
BITMAP
FDF7C03E
FDF7C03E
FDF7C03E
FDF7C03E
FDF7C03E
FDF7C03E
FDF7C03E
00000000
FC07C03E
FC07C03E
FC07C03E
FC07C03E
FC07C03E
FC07C03E
FC07C03E
00000000
FDF7DFBE
FDF7DFBE
FDF7DFBE
FDF7DFBE
FDF7DFBE
FDF7DFBE
FDF7DFBE
00000000
01F01F80
01F01F80
01F01F80
01F01F80
01F01F80
01F01F80
01F01F80
00000000
01F7DFBE
01F7DFBE
01F7DFBE
01F7DFBE
01F7DFBE
01F7DFBE
01F7DFBE
ENDCHAR
STARTCHAR 0027
ENCODING 39
SWIDTH 686 0
DWIDTH 35 0
BBX 5 15 8 25
BITMAP
F8
F8
F8
F8
F8
F8
F8
00
F8
F8
F8
F8
F8
F8
F8
ENDCHAR
STARTCHAR 0028
ENCODING 40
SWIDTH 686 0
DWIDTH 35 0
BBX 18 39 8 1
BITMAP
03F7C0
03F7C0
03F7C0
03F7C0
03F7C0
03F7C0
03F7C0
000000
F80000
F80000
F80000
F80000
F80000
F80000
F80000
000000
F80000
F80000
F80000
F80000
F80000
F80000
F80000
000000
F80000
F80000
F80000
F80000
F80000
F80000
F80000
000000
03F7C0
03F7C0
03F7C0
03F7C0
03F7C0
03F7C0
03F7C0
ENDCHAR
STARTCHAR 0029
ENCODING 41
SWIDTH 705 0
DWIDTH 36 0
BBX 18 39 15 1
BITMAP
FDF000
FDF000
FDF000
FDF000
FDF000
FDF000
FDF000
000000
0007C0
0007C0
0007C0
0007C0
0007C0
0007C0
0007C0
000000
0007C0
0007C0
0007C0
0007C0
0007C0
0007C0
0007C0
000000
0007C0
0007C0
0007C0
0007C0
0007C0
0007C0
0007C0
000000
FDF000
FDF000
FDF000
FDF000
FDF000
FDF000
FDF000
ENDCHAR
STARTCHAR 002A
ENCODING 42
SWIDTH 705 0
DWIDTH 36 0
BBX 31 39 2 1
BITMAP
FC07C03E
FC07C03E
FC07C03E
FC07C03E
FC07C03E
FC07C03E
FC07C03E
00000000
01F7DF80
01F7DF80
01F7DF80
01F7DF80
01F7DF80
01F7DF80
01F7DF80
00000000
0007C000
0007C000
0007C000
0007C000
0007C000
0007C000
0007C000
00000000
01F7DF80
01F7DF80
01F7DF80
01F7DF80
01F7DF80
01F7DF80
01F7DF80
00000000
FC07C03E
FC07C03E
FC07C03E
FC07C03E
FC07C03E
FC07C03E
FC07C03E
ENDCHAR
STARTCHAR 002B
ENCODING 43
SWIDTH 705 0
DWIDTH 36 0
BBX 31 39 2 1
BITMAP
0007C000
0007C000
0007C000
0007C000
0007C000
0007C000
0007C000
00000000
0007C000
0007C000
0007C000
0007C000
0007C000
0007C000
0007C000
00000000
FDF7DFBE
FDF7DFBE
FDF7DFBE
FDF7DFBE
FDF7DFBE
FDF7DFBE
FDF7DFBE
00000000
0007C000
0007C000
0007C000
0007C000
0007C000
0007C000
0007C000
00000000
0007C000
0007C000
0007C000
0007C000
0007C000
0007C000
0007C000
ENDCHAR
STARTCHAR 002C
ENCODING 44
SWIDTH 705 0
DWIDTH 36 0
BBX 19 23 2 1
BITMAP
01F7E0
01F7E0
01F7E0
01F7E0
01F7E0
01F7E0
01F7E0
000000
01F7E0
01F7E0
01F7E0
01F7E0
01F7E0
01F7E0
01F7E0
000000
FC0000
FC0000
FC0000
FC0000
FC0000
FC0000
FC0000
ENDCHAR
STARTCHAR 002D
ENCODING 45
SWIDTH 705 0
DWIDTH 36 0
BBX 31 7 2 17
BITMAP
FDF7DFBE
FDF7DFBE
FDF7DFBE
FDF7DFBE
FDF7DFBE
FDF7DFBE
FDF7DFBE
ENDCHAR
STARTCHAR 002E
ENCODING 46
SWIDTH 686 0
DWIDTH 35 0
BBX 12 15 8 1
BITMAP
FBF0
FBF0
FBF0
FBF0
FBF0
FBF0
FBF0
0000
FBF0
FBF0
FBF0
FBF0
FBF0
FBF0
FBF0
ENDCHAR
STARTCHAR 002F
ENCODING 47
SWIDTH 705 0
DWIDTH 36 0
BBX 31 39 2 1
BITMAP
0000003E
0000003E
0000003E
0000003E
0000003E
0000003E
0000003E
00000000
00001F80
00001F80
00001F80
00001F80
00001F80
00001F80
00001F80
00000000
0007E000
0007E000
0007E000
0007E000
0007E000
0007E000
0007E000
00000000
01F00000
01F00000
01F00000
01F00000
01F00000
01F00000
01F00000
00000000
FC000000
FC000000
FC000000
FC000000
FC000000
FC000000
FC000000
ENDCHAR
STARTCHAR 0030
ENCODING 48
SWIDTH 686 0
DWIDTH 35 0
BBX 24 39 8 1
BITMAP
03F7C0
03F7C0
03F7C0
03F7C0
03F7C0
03F7C0
03F7C0
000000
F8001F
F8001F
F8001F
F8001F
F8001F
F8001F
F8001F
000000
F8001F
F8001F
F8001F
F8001F
F8001F
F8001F
F8001F
000000
F8001F
F8001F
F8001F
F8001F
F8001F
F8001F
F8001F
000000
03F7C0
03F7C0
03F7C0
03F7C0
03F7C0
03F7C0
03F7C0
ENDCHAR
STARTCHAR 0031
ENCODING 49
SWIDTH 686 0
DWIDTH 35 0
BBX 12 39 8 1
BITMAP
03F0
03F0
03F0
03F0
03F0
03F0
03F0
0000
FBF0
FBF0
FBF0
FBF0
FBF0
FBF0
FBF0
0000
03F0
03F0
03F0
03F0
03F0
03F0
03F0
0000
03F0
03F0
03F0
03F0
03F0
03F0
03F0
0000
03F0
03F0
03F0
03F0
03F0
03F0
03F0
ENDCHAR
STARTCHAR 0032
ENCODING 50
SWIDTH 705 0
DWIDTH 36 0
BBX 31 39 2 1
BITMAP
FDF7DF80
FDF7DF80
FDF7DF80
FDF7DF80
FDF7DF80
FDF7DF80
FDF7DF80
00000000
0000003E
0000003E
0000003E
0000003E
0000003E
0000003E
0000003E
00000000
01F7DF80
01F7DF80
01F7DF80
01F7DF80
01F7DF80
01F7DF80
01F7DF80
00000000
FC000000
FC000000
FC000000
FC000000
FC000000
FC000000
FC000000
00000000
FDF7DFBE
FDF7DFBE
FDF7DFBE
FDF7DFBE
FDF7DFBE
FDF7DFBE
FDF7DFBE
ENDCHAR
STARTCHAR 0033
ENCODING 51
SWIDTH 705 0
DWIDTH 36 0
BBX 31 39 2 1
BITMAP
FDF7DF80
FDF7DF80
FDF7DF80
FDF7DF80
FDF7DF80
FDF7DF80
FDF7DF80
00000000
0000003E
0000003E
0000003E
0000003E
0000003E
0000003E
0000003E
00000000
FDF7DF80
FDF7DF80
FDF7DF80
FDF7DF80
FDF7DF80
FDF7DF80
FDF7DF80
00000000
0000003E
0000003E
0000003E
0000003E
0000003E
0000003E
0000003E
00000000
FDF7DF80
FDF7DF80
FDF7DF80
FDF7DF80
FDF7DF80
FDF7DF80
FDF7DF80
ENDCHAR
STARTCHAR 0034
ENCODING 52
SWIDTH 705 0
DWIDTH 36 0
BBX 31 39 2 1
BITMAP
FC001F80
FC001F80
FC001F80
FC001F80
FC001F80
FC001F80
FC001F80
00000000
FC001F80
FC001F80
FC001F80
FC001F80
FC001F80
FC001F80
FC001F80
00000000
FDF7DFBE
FDF7DFBE
FDF7DFBE
FDF7DFBE
FDF7DFBE
FDF7DFBE
FDF7DFBE
00000000
00001F80
00001F80
00001F80
00001F80
00001F80
00001F80
00001F80
00000000
00001F80
00001F80
00001F80
00001F80
00001F80
00001F80
00001F80
ENDCHAR
STARTCHAR 0035
ENCODING 53
SWIDTH 705 0
DWIDTH 36 0
BBX 31 39 2 1
BITMAP
FDF7DFBE
FDF7DFBE
FDF7DFBE
FDF7DFBE
FDF7DFBE
FDF7DFBE
FDF7DFBE
00000000
FC000000
FC000000
FC000000
FC000000
FC000000
FC000000
FC000000
00000000
FDF7DF80
FDF7DF80
FDF7DF80
FDF7DF80
FDF7DF80
FDF7DF80
FDF7DF80
00000000
0000003E
0000003E
0000003E
0000003E
0000003E
0000003E
0000003E
00000000
FDF7DF80
FDF7DF80
FDF7DF80
FDF7DF80
FDF7DF80
FDF7DF80
FDF7DF80
ENDCHAR
STARTCHAR 0036
ENCODING 54
SWIDTH 705 0
DWIDTH 36 0
BBX 31 39 2 1
BITMAP
01F7DFBE
01F7DFBE
01F7DFBE
01F7DFBE
01F7DFBE
01F7DFBE
01F7DFBE
00000000
FC000000
FC000000
FC000000
FC000000
FC000000
FC000000
FC000000
00000000
FDF7DF80
FDF7DF80
FDF7DF80
FDF7DF80
FDF7DF80
FDF7DF80
FDF7DF80
00000000
FC00003E
FC00003E
FC00003E
FC00003E
FC00003E
FC00003E
FC00003E
00000000
01F7DF80
01F7DF80
01F7DF80
01F7DF80
01F7DF80
01F7DF80
01F7DF80
ENDCHAR
STARTCHAR 0037
ENCODING 55
SWIDTH 705 0
DWIDTH 36 0
BBX 31 39 2 1
BITMAP
FDF7DFBE
FDF7DFBE
FDF7DFBE
FDF7DFBE
FDF7DFBE
FDF7DFBE
FDF7DFBE
00000000
0000003E
0000003E
0000003E
0000003E
0000003E
0000003E
0000003E
00000000
00001F80
00001F80
00001F80
00001F80
00001F80
00001F80
00001F80
00000000
0007C000
0007C000
0007C000
0007C000
0007C000
0007C000
0007C000
00000000
0007C000
0007C000
0007C000
0007C000
0007C000
0007C000
0007C000
ENDCHAR
STARTCHAR 0038
ENCODING 56
SWIDTH 705 0
DWIDTH 36 0
BBX 31 39 2 1
BITMAP
01F7DF80
01F7DF80
01F7DF80
01F7DF80
01F7DF80
01F7DF80
01F7DF80
00000000
FC00003E
FC00003E
FC00003E
FC00003E
FC00003E
FC00003E
FC00003E
00000000
01F7DF80
01F7DF80
01F7DF80
01F7DF80
01F7DF80
01F7DF80
01F7DF80
00000000
FC00003E
FC00003E
FC00003E
FC00003E
FC00003E
FC00003E
FC00003E
00000000
01F7DF80
01F7DF80
01F7DF80
01F7DF80
01F7DF80
01F7DF80
01F7DF80
ENDCHAR
STARTCHAR 0039
ENCODING 57
SWIDTH 705 0
DWIDTH 36 0
BBX 31 39 2 1
BITMAP
01F7DF80
01F7DF80
01F7DF80
01F7DF80
01F7DF80
01F7DF80
01F7DF80
00000000
FC00003E
FC00003E
FC00003E
FC00003E
FC00003E
FC00003E
FC00003E
00000000
01F7DFBE
01F7DFBE
01F7DFBE
01F7DFBE
01F7DFBE
01F7DFBE
01F7DFBE
00000000
0000003E
0000003E
0000003E
0000003E
0000003E
0000003E
0000003E
00000000
FDF7DF80
FDF7DF80
FDF7DF80
FDF7DF80
FDF7DF80
FDF7DF80
FDF7DF80
ENDCHAR
STARTCHAR 003A
ENCODING 58
SWIDTH 705 0
DWIDTH 36 0
BBX 6 23 15 9
BITMAP
FC
FC
FC
FC
FC
FC
FC
00
00
00
00
00
00
00
00
00
FC
FC
FC
FC
FC
FC
FC
ENDCHAR
STARTCHAR 003B
ENCODING 59
SWIDTH 686 0
DWIDTH 35 0
BBX 12 31 8 1
BITMAP
03F0
03F0
03F0
03F0
03F0
03F0
03F0
0000
0000
0000
0000
0000
0000
0000
0000
0000
03F0
03F0
03F0
03F0
03F0
03F0
03F0
0000
F800
F800
F800
F800
F800
F800
F800
ENDCHAR
STARTCHAR 003C
ENCODING 60
SWIDTH 686 0
DWIDTH 35 0
BBX 18 39 8 1
BITMAP
000FC0
000FC0
000FC0
000FC0
000FC0
000FC0
000FC0
000000
03F000
03F000
03F000
03F000
03F000
03F000
03F000
000000
F80000
F80000
F80000
F80000
F80000
F80000
F80000
000000
03F000
03F000
03F000
03F000
03F000
03F000
03F000
000000
000FC0
000FC0
000FC0
000FC0
000FC0
000FC0
000FC0
ENDCHAR
STARTCHAR 003D
ENCODING 61
SWIDTH 705 0
DWIDTH 36 0
BBX 31 23 2 9
BITMAP
FDF7DFBE
FDF7DFBE
FDF7DFBE
FDF7DFBE
FDF7DFBE
FDF7DFBE
FDF7DFBE
00000000
00000000
00000000
00000000
00000000
00000000
00000000
00000000
00000000
FDF7DFBE
FDF7DFBE
FDF7DFBE
FDF7DFBE
FDF7DFBE
FDF7DFBE
FDF7DFBE
ENDCHAR
STARTCHAR 003E
ENCODING 62
SWIDTH 686 0
DWIDTH 35 0
BBX 18 39 8 1
BITMAP
F80000
F80000
F80000
F80000
F80000
F80000
F80000
000000
03F000
03F000
03F000
03F000
03F000
03F000
03F000
000000
000FC0
000FC0
000FC0
000FC0
000FC0
000FC0
000FC0
000000
03F000
03F000
03F000
03F000
03F000
03F000
03F000
000000
F80000
F80000
F80000
F80000
F80000
F80000
F80000
ENDCHAR
STARTCHAR 003F
ENCODING 63
SWIDTH 705 0
DWIDTH 36 0
BBX 31 39 2 1
BITMAP
01F7DF80
01F7DF80
01F7DF80
01F7DF80
01F7DF80
01F7DF80
01F7DF80
00000000
FC00003E
FC00003E
FC00003E
FC00003E
FC00003E
FC00003E
FC00003E
00000000
0007DF80
0007DF80
0007DF80
0007DF80
0007DF80
0007DF80
0007DF80
00000000
00000000
00000000
00000000
00000000
00000000
00000000
00000000
00000000
0007C000
0007C000
0007C000
0007C000
0007C000
0007C000
0007C000
ENDCHAR
STARTCHAR 0040
ENCODING 64
SWIDTH 705 0
DWIDTH 36 0
BBX 31 39 2 1
BITMAP
01F7DFBE
01F7DFBE
01F7DFBE
01F7DFBE
01F7DFBE
01F7DFBE
01F7DFBE
00000000
FC07DFBE
FC07DFBE
FC07DFBE
FC07DFBE
FC07DFBE
FC07DFBE
FC07DFBE
00000000
FDF01FBE
FDF01FBE
FDF01FBE
FDF01FBE
FDF01FBE
FDF01FBE
FDF01FBE
00000000
FC07DFBE
FC07DFBE
FC07DFBE
FC07DFBE
FC07DFBE
FC07DFBE
FC07DFBE
00000000
01F7DF80
01F7DF80
01F7DF80
01F7DF80
01F7DF80
01F7DF80
01F7DF80
ENDCHAR
STARTCHAR 0041
ENCODING 65
SWIDTH 705 0
DWIDTH 36 0
BBX 31 39 2 1
BITMAP
01F7DF80
01F7DF80
01F7DF80
01F7DF80
01F7DF80
01F7DF80
01F7DF80
00000000
FC00003E
FC00003E
FC00003E
FC00003E
FC00003E
FC00003E
FC00003E
00000000
FDF7DFBE
FDF7DFBE
FDF7DFBE
FDF7DFBE
FDF7DFBE
FDF7DFBE
FDF7DFBE
00000000
FC00003E
FC00003E
FC00003E
FC00003E
FC00003E
FC00003E
FC00003E
00000000
FC00003E
FC00003E
FC00003E
FC00003E
FC00003E
FC00003E
FC00003E
ENDCHAR
STARTCHAR 0042
ENCODING 66
SWIDTH 705 0
DWIDTH 36 0
BBX 31 39 2 1
BITMAP
FDF7DF80
FDF7DF80
FDF7DF80
FDF7DF80
FDF7DF80
FDF7DF80
FDF7DF80
00000000
FC00003E
FC00003E
FC00003E
FC00003E
FC00003E
FC00003E
FC00003E
00000000
FDF7DF80
FDF7DF80
FDF7DF80
FDF7DF80
FDF7DF80
FDF7DF80
FDF7DF80
00000000
FC00003E
FC00003E
FC00003E
FC00003E
FC00003E
FC00003E
FC00003E
00000000
FDF7DF80
FDF7DF80
FDF7DF80
FDF7DF80
FDF7DF80
FDF7DF80
FDF7DF80
ENDCHAR
STARTCHAR 0043
ENCODING 67
SWIDTH 705 0
DWIDTH 36 0
BBX 31 39 2 1
BITMAP
01F7DFBE
01F7DFBE
01F7DFBE
01F7DFBE
01F7DFBE
01F7DFBE
01F7DFBE
00000000
FC000000
FC000000
FC000000
FC000000
FC000000
FC000000
FC000000
00000000
FC000000
FC000000
FC000000
FC000000
FC000000
FC000000
FC000000
00000000
FC000000
FC000000
FC000000
FC000000
FC000000
FC000000
FC000000
00000000
01F7DFBE
01F7DFBE
01F7DFBE
01F7DFBE
01F7DFBE
01F7DFBE
01F7DFBE
ENDCHAR
STARTCHAR 0044
ENCODING 68
SWIDTH 705 0
DWIDTH 36 0
BBX 31 39 2 1
BITMAP
FDF7DF80
FDF7DF80
FDF7DF80
FDF7DF80
FDF7DF80
FDF7DF80
FDF7DF80
00000000
FC00003E
FC00003E
FC00003E
FC00003E
FC00003E
FC00003E
FC00003E
00000000
FC00003E
FC00003E
FC00003E
FC00003E
FC00003E
FC00003E
FC00003E
00000000
FC00003E
FC00003E
FC00003E
FC00003E
FC00003E
FC00003E
FC00003E
00000000
FDF7DF80
FDF7DF80
FDF7DF80
FDF7DF80
FDF7DF80
FDF7DF80
FDF7DF80
ENDCHAR
STARTCHAR 0045
ENCODING 69
SWIDTH 705 0
DWIDTH 36 0
BBX 31 39 2 1
BITMAP
FDF7DFBE
FDF7DFBE
FDF7DFBE
FDF7DFBE
FDF7DFBE
FDF7DFBE
FDF7DFBE
00000000
FC000000
FC000000
FC000000
FC000000
FC000000
FC000000
FC000000
00000000
FDF7DF80
FDF7DF80
FDF7DF80
FDF7DF80
FDF7DF80
FDF7DF80
FDF7DF80
00000000
FC000000
FC000000
FC000000
FC000000
FC000000
FC000000
FC000000
00000000
FDF7DFBE
FDF7DFBE
FDF7DFBE
FDF7DFBE
FDF7DFBE
FDF7DFBE
FDF7DFBE
ENDCHAR
STARTCHAR 0046
ENCODING 70
SWIDTH 705 0
DWIDTH 36 0
BBX 31 39 2 1
BITMAP
FDF7DFBE
FDF7DFBE
FDF7DFBE
FDF7DFBE
FDF7DFBE
FDF7DFBE
FDF7DFBE
00000000
FC000000
FC000000
FC000000
FC000000
FC000000
FC000000
FC000000
00000000
FDF7DF80
FDF7DF80
FDF7DF80
FDF7DF80
FDF7DF80
FDF7DF80
FDF7DF80
00000000
FC000000
FC000000
FC000000
FC000000
FC000000
FC000000
FC000000
00000000
FC000000
FC000000
FC000000
FC000000
FC000000
FC000000
FC000000
ENDCHAR
STARTCHAR 0047
ENCODING 71
SWIDTH 705 0
DWIDTH 36 0
BBX 31 39 2 1
BITMAP
01F7DFBE
01F7DFBE
01F7DFBE
01F7DFBE
01F7DFBE
01F7DFBE
01F7DFBE
00000000
FC000000
FC000000
FC000000
FC000000
FC000000
FC000000
FC000000
00000000
FC001FBE
FC001FBE
FC001FBE
FC001FBE
FC001FBE
FC001FBE
FC001FBE
00000000
FC00003E
FC00003E
FC00003E
FC00003E
FC00003E
FC00003E
FC00003E
00000000
01F7DFBE
01F7DFBE
01F7DFBE
01F7DFBE
01F7DFBE
01F7DFBE
01F7DFBE
ENDCHAR
STARTCHAR 0048
ENCODING 72
SWIDTH 705 0
DWIDTH 36 0
BBX 31 39 2 1
BITMAP
FC00003E
FC00003E
FC00003E
FC00003E
FC00003E
FC00003E
FC00003E
00000000
FC00003E
FC00003E
FC00003E
FC00003E
FC00003E
FC00003E
FC00003E
00000000
FDF7DFBE
FDF7DFBE
FDF7DFBE
FDF7DFBE
FDF7DFBE
FDF7DFBE
FDF7DFBE
00000000
FC00003E
FC00003E
FC00003E
FC00003E
FC00003E
FC00003E
FC00003E
00000000
FC00003E
FC00003E
FC00003E
FC00003E
FC00003E
FC00003E
FC00003E
ENDCHAR
STARTCHAR 0049
ENCODING 73
SWIDTH 705 0
DWIDTH 36 0
BBX 18 39 9 1
BITMAP
FDF7C0
FDF7C0
FDF7C0
FDF7C0
FDF7C0
FDF7C0
FDF7C0
000000
01F000
01F000
01F000
01F000
01F000
01F000
01F000
000000
01F000
01F000
01F000
01F000
01F000
01F000
01F000
000000
01F000
01F000
01F000
01F000
01F000
01F000
01F000
000000
FDF7C0
FDF7C0
FDF7C0
FDF7C0
FDF7C0
FDF7C0
FDF7C0
ENDCHAR
STARTCHAR 004A
ENCODING 74
SWIDTH 705 0
DWIDTH 36 0
BBX 31 39 2 1
BITMAP
0007DFBE
0007DFBE
0007DFBE
0007DFBE
0007DFBE
0007DFBE
0007DFBE
00000000
00001F80
00001F80
00001F80
00001F80
00001F80
00001F80
00001F80
00000000
00001F80
00001F80
00001F80
00001F80
00001F80
00001F80
00001F80
00000000
FC001F80
FC001F80
FC001F80
FC001F80
FC001F80
FC001F80
FC001F80
00000000
01F7C000
01F7C000
01F7C000
01F7C000
01F7C000
01F7C000
01F7C000
ENDCHAR
STARTCHAR 004B
ENCODING 75
SWIDTH 705 0
DWIDTH 36 0
BBX 31 39 2 1
BITMAP
FC00003E
FC00003E
FC00003E
FC00003E
FC00003E
FC00003E
FC00003E
00000000
FC001F80
FC001F80
FC001F80
FC001F80
FC001F80
FC001F80
FC001F80
00000000
FC07E000
FC07E000
FC07E000
FC07E000
FC07E000
FC07E000
FC07E000
00000000
FDF01F80
FDF01F80
FDF01F80
FDF01F80
FDF01F80
FDF01F80
FDF01F80
00000000
FC00003E
FC00003E
FC00003E
FC00003E
FC00003E
FC00003E
FC00003E
ENDCHAR
STARTCHAR 004C
ENCODING 76
SWIDTH 705 0
DWIDTH 36 0
BBX 31 39 2 1
BITMAP
FC000000
FC000000
FC000000
FC000000
FC000000
FC000000
FC000000
00000000
FC000000
FC000000
FC000000
FC000000
FC000000
FC000000
FC000000
00000000
FC000000
FC000000
FC000000
FC000000
FC000000
FC000000
FC000000
00000000
FC000000
FC000000
FC000000
FC000000
FC000000
FC000000
FC000000
00000000
FDF7DFBE
FDF7DFBE
FDF7DFBE
FDF7DFBE
FDF7DFBE
FDF7DFBE
FDF7DFBE
ENDCHAR
STARTCHAR 004D
ENCODING 77
SWIDTH 705 0
DWIDTH 36 0
BBX 31 39 2 1
BITMAP
FC00003E
FC00003E
FC00003E
FC00003E
FC00003E
FC00003E
FC00003E
00000000
FDF01FBE
FDF01FBE
FDF01FBE
FDF01FBE
FDF01FBE
FDF01FBE
FDF01FBE
00000000
FC07E03E
FC07E03E
FC07E03E
FC07E03E
FC07E03E
FC07E03E
FC07E03E
00000000
FC07E03E
FC07E03E
FC07E03E
FC07E03E
FC07E03E
FC07E03E
FC07E03E
00000000
FC00003E
FC00003E
FC00003E
FC00003E
FC00003E
FC00003E
FC00003E
ENDCHAR
STARTCHAR 004E
ENCODING 78
SWIDTH 705 0
DWIDTH 36 0
BBX 31 39 2 1
BITMAP
FC00003E
FC00003E
FC00003E
FC00003E
FC00003E
FC00003E
FC00003E
00000000
FDF0003E
FDF0003E
FDF0003E
FDF0003E
FDF0003E
FDF0003E
FDF0003E
00000000
FC07E03E
FC07E03E
FC07E03E
FC07E03E
FC07E03E
FC07E03E
FC07E03E
00000000
FC001FBE
FC001FBE
FC001FBE
FC001FBE
FC001FBE
FC001FBE
FC001FBE
00000000
FC00003E
FC00003E
FC00003E
FC00003E
FC00003E
FC00003E
FC00003E
ENDCHAR
STARTCHAR 004F
ENCODING 79
SWIDTH 705 0
DWIDTH 36 0
BBX 31 39 2 1
BITMAP
01F7DF80
01F7DF80
01F7DF80
01F7DF80
01F7DF80
01F7DF80
01F7DF80
00000000
FC00003E
FC00003E
FC00003E
FC00003E
FC00003E
FC00003E
FC00003E
00000000
FC00003E
FC00003E
FC00003E
FC00003E
FC00003E
FC00003E
FC00003E
00000000
FC00003E
FC00003E
FC00003E
FC00003E
FC00003E
FC00003E
FC00003E
00000000
01F7DF80
01F7DF80
01F7DF80
01F7DF80
01F7DF80
01F7DF80
01F7DF80
ENDCHAR
STARTCHAR 0050
ENCODING 80
SWIDTH 705 0
DWIDTH 36 0
BBX 31 39 2 1
BITMAP
FDF7DF80
FDF7DF80
FDF7DF80
FDF7DF80
FDF7DF80
FDF7DF80
FDF7DF80
00000000
FC00003E
FC00003E
FC00003E
FC00003E
FC00003E
FC00003E
FC00003E
00000000
FDF7DF80
FDF7DF80
FDF7DF80
FDF7DF80
FDF7DF80
FDF7DF80
FDF7DF80
00000000
FC000000
FC000000
FC000000
FC000000
FC000000
FC000000
FC000000
00000000
FC000000
FC000000
FC000000
FC000000
FC000000
FC000000
FC000000
ENDCHAR
STARTCHAR 0051
ENCODING 81
SWIDTH 705 0
DWIDTH 36 0
BBX 31 39 2 1
BITMAP
01F7DF80
01F7DF80
01F7DF80
01F7DF80
01F7DF80
01F7DF80
01F7DF80
00000000
FC00003E
FC00003E
FC00003E
FC00003E
FC00003E
FC00003E
FC00003E
00000000
FC07C03E
FC07C03E
FC07C03E
FC07C03E
FC07C03E
FC07C03E
FC07C03E
00000000
FC001F80
FC001F80
FC001F80
FC001F80
FC001F80
FC001F80
FC001F80
00000000
01F7C03E
01F7C03E
01F7C03E
01F7C03E
01F7C03E
01F7C03E
01F7C03E
ENDCHAR
STARTCHAR 0052
ENCODING 82
SWIDTH 705 0
DWIDTH 36 0
BBX 31 39 2 1
BITMAP
FDF7DF80
FDF7DF80
FDF7DF80
FDF7DF80
FDF7DF80
FDF7DF80
FDF7DF80
00000000
FC00003E
FC00003E
FC00003E
FC00003E
FC00003E
FC00003E
FC00003E
00000000
FDF7DF80
FDF7DF80
FDF7DF80
FDF7DF80
FDF7DF80
FDF7DF80
FDF7DF80
00000000
FC001F80
FC001F80
FC001F80
FC001F80
FC001F80
FC001F80
FC001F80
00000000
FC00003E
FC00003E
FC00003E
FC00003E
FC00003E
FC00003E
FC00003E
ENDCHAR
STARTCHAR 0053
ENCODING 83
SWIDTH 705 0
DWIDTH 36 0
BBX 31 39 2 1
BITMAP
01F7DFBE
01F7DFBE
01F7DFBE
01F7DFBE
01F7DFBE
01F7DFBE
01F7DFBE
00000000
FC000000
FC000000
FC000000
FC000000
FC000000
FC000000
FC000000
00000000
01F7DF80
01F7DF80
01F7DF80
01F7DF80
01F7DF80
01F7DF80
01F7DF80
00000000
0000003E
0000003E
0000003E
0000003E
0000003E
0000003E
0000003E
00000000
FDF7DF80
FDF7DF80
FDF7DF80
FDF7DF80
FDF7DF80
FDF7DF80
FDF7DF80
ENDCHAR
STARTCHAR 0054
ENCODING 84
SWIDTH 705 0
DWIDTH 36 0
BBX 31 39 2 1
BITMAP
FDF7DFBE
FDF7DFBE
FDF7DFBE
FDF7DFBE
FDF7DFBE
FDF7DFBE
FDF7DFBE
00000000
0007C000
0007C000
0007C000
0007C000
0007C000
0007C000
0007C000
00000000
0007C000
0007C000
0007C000
0007C000
0007C000
0007C000
0007C000
00000000
0007C000
0007C000
0007C000
0007C000
0007C000
0007C000
0007C000
00000000
0007C000
0007C000
0007C000
0007C000
0007C000
0007C000
0007C000
ENDCHAR
STARTCHAR 0055
ENCODING 85
SWIDTH 705 0
DWIDTH 36 0
BBX 31 39 2 1
BITMAP
FC00003E
FC00003E
FC00003E
FC00003E
FC00003E
FC00003E
FC00003E
00000000
FC00003E
FC00003E
FC00003E
FC00003E
FC00003E
FC00003E
FC00003E
00000000
FC00003E
FC00003E
FC00003E
FC00003E
FC00003E
FC00003E
FC00003E
00000000
FC00003E
FC00003E
FC00003E
FC00003E
FC00003E
FC00003E
FC00003E
00000000
01F7DF80
01F7DF80
01F7DF80
01F7DF80
01F7DF80
01F7DF80
01F7DF80
ENDCHAR
STARTCHAR 0056
ENCODING 86
SWIDTH 705 0
DWIDTH 36 0
BBX 31 39 2 1
BITMAP
FC00003E
FC00003E
FC00003E
FC00003E
FC00003E
FC00003E
FC00003E
00000000
FC00003E
FC00003E
FC00003E
FC00003E
FC00003E
FC00003E
FC00003E
00000000
FC00003E
FC00003E
FC00003E
FC00003E
FC00003E
FC00003E
FC00003E
00000000
01F01F80
01F01F80
01F01F80
01F01F80
01F01F80
01F01F80
01F01F80
00000000
0007E000
0007E000
0007E000
0007E000
0007E000
0007E000
0007E000
ENDCHAR
STARTCHAR 0057
ENCODING 87
SWIDTH 705 0
DWIDTH 36 0
BBX 31 39 2 1
BITMAP
FC00003E
FC00003E
FC00003E
FC00003E
FC00003E
FC00003E
FC00003E
00000000
FC07E03E
FC07E03E
FC07E03E
FC07E03E
FC07E03E
FC07E03E
FC07E03E
00000000
FC07E03E
FC07E03E
FC07E03E
FC07E03E
FC07E03E
FC07E03E
FC07E03E
00000000
FC07E03E
FC07E03E
FC07E03E
FC07E03E
FC07E03E
FC07E03E
FC07E03E
00000000
01F01F80
01F01F80
01F01F80
01F01F80
01F01F80
01F01F80
01F01F80
ENDCHAR
STARTCHAR 0058
ENCODING 88
SWIDTH 705 0
DWIDTH 36 0
BBX 31 39 2 1
BITMAP
FC00003E
FC00003E
FC00003E
FC00003E
FC00003E
FC00003E
FC00003E
00000000
01F01F80
01F01F80
01F01F80
01F01F80
01F01F80
01F01F80
01F01F80
00000000
0007E000
0007E000
0007E000
0007E000
0007E000
0007E000
0007E000
00000000
01F01F80
01F01F80
01F01F80
01F01F80
01F01F80
01F01F80
01F01F80
00000000
FC00003E
FC00003E
FC00003E
FC00003E
FC00003E
FC00003E
FC00003E
ENDCHAR
STARTCHAR 0059
ENCODING 89
SWIDTH 705 0
DWIDTH 36 0
BBX 31 39 2 1
BITMAP
FC00003E
FC00003E
FC00003E
FC00003E
FC00003E
FC00003E
FC00003E
00000000
01F01F80
01F01F80
01F01F80
01F01F80
01F01F80
01F01F80
01F01F80
00000000
0007E000
0007E000
0007E000
0007E000
0007E000
0007E000
0007E000
00000000
0007E000
0007E000
0007E000
0007E000
0007E000
0007E000
0007E000
00000000
0007E000
0007E000
0007E000
0007E000
0007E000
0007E000
0007E000
ENDCHAR
STARTCHAR 005A
ENCODING 90
SWIDTH 705 0
DWIDTH 36 0
BBX 31 39 2 1
BITMAP
FDF7DFBE
FDF7DFBE
FDF7DFBE
FDF7DFBE
FDF7DFBE
FDF7DFBE
FDF7DFBE
00000000
00001F80
00001F80
00001F80
00001F80
00001F80
00001F80
00001F80
00000000
0007C000
0007C000
0007C000
0007C000
0007C000
0007C000
0007C000
00000000
01F00000
01F00000
01F00000
01F00000
01F00000
01F00000
01F00000
00000000
FDF7DFBE
FDF7DFBE
FDF7DFBE
FDF7DFBE
FDF7DFBE
FDF7DFBE
FDF7DFBE
ENDCHAR
STARTCHAR 005B
ENCODING 91
SWIDTH 705 0
DWIDTH 36 0
BBX 18 39 9 1
BITMAP
FDF7C0
FDF7C0
FDF7C0
FDF7C0
FDF7C0
FDF7C0
FDF7C0
000000
FC0000
FC0000
FC0000
FC0000
FC0000
FC0000
FC0000
000000
FC0000
FC0000
FC0000
FC0000
FC0000
FC0000
FC0000
000000
FC0000
FC0000
FC0000
FC0000
FC0000
FC0000
FC0000
000000
FDF7C0
FDF7C0
FDF7C0
FDF7C0
FDF7C0
FDF7C0
FDF7C0
ENDCHAR
STARTCHAR 005C
ENCODING 92
SWIDTH 705 0
DWIDTH 36 0
BBX 31 39 2 1
BITMAP
FC000000
FC000000
FC000000
FC000000
FC000000
FC000000
FC000000
00000000
01F00000
01F00000
01F00000
01F00000
01F00000
01F00000
01F00000
00000000
0007E000
0007E000
0007E000
0007E000
0007E000
0007E000
0007E000
00000000
00001F80
00001F80
00001F80
00001F80
00001F80
00001F80
00001F80
00000000
0000003E
0000003E
0000003E
0000003E
0000003E
0000003E
0000003E
ENDCHAR
STARTCHAR 005D
ENCODING 93
SWIDTH 705 0
DWIDTH 36 0
BBX 18 39 9 1
BITMAP
FDF7C0
FDF7C0
FDF7C0
FDF7C0
FDF7C0
FDF7C0
FDF7C0
000000
0007C0
0007C0
0007C0
0007C0
0007C0
0007C0
0007C0
000000
0007C0
0007C0
0007C0
0007C0
0007C0
0007C0
0007C0
000000
0007C0
0007C0
0007C0
0007C0
0007C0
0007C0
0007C0
000000
FDF7C0
FDF7C0
FDF7C0
FDF7C0
FDF7C0
FDF7C0
FDF7C0
ENDCHAR
STARTCHAR 005E
ENCODING 94
SWIDTH 686 0
DWIDTH 35 0
BBX 18 15 8 25
BITMAP
03F000
03F000
03F000
03F000
03F000
03F000
03F000
000000
F80FC0
F80FC0
F80FC0
F80FC0
F80FC0
F80FC0
F80FC0
ENDCHAR
STARTCHAR 005F
ENCODING 95
SWIDTH 705 0
DWIDTH 36 0
BBX 31 7 2 1
BITMAP
FDF7DFBE
FDF7DFBE
FDF7DFBE
FDF7DFBE
FDF7DFBE
FDF7DFBE
FDF7DFBE
ENDCHAR
STARTCHAR 0060
ENCODING 96
SWIDTH 686 0
DWIDTH 35 0
BBX 12 15 8 25
BITMAP
F800
F800
F800
F800
F800
F800
F800
0000
03F0
03F0
03F0
03F0
03F0
03F0
03F0
ENDCHAR
STARTCHAR 0061
ENCODING 97
SWIDTH 705 0
DWIDTH 36 0
BBX 31 31 2 1
BITMAP
01F7DF80
01F7DF80
01F7DF80
01F7DF80
01F7DF80
01F7DF80
01F7DF80
00000000
FC001F80
FC001F80
FC001F80
FC001F80
FC001F80
FC001F80
FC001F80
00000000
FC001F80
FC001F80
FC001F80
FC001F80
FC001F80
FC001F80
FC001F80
00000000
01F7C03E
01F7C03E
01F7C03E
01F7C03E
01F7C03E
01F7C03E
01F7C03E
ENDCHAR
STARTCHAR 0062
ENCODING 98
SWIDTH 588 0
DWIDTH 30 0
BBX 25 39 3 1
BITMAP
FC000000
FC000000
FC000000
FC000000
FC000000
FC000000
FC000000
00000000
FDF7C000
FDF7C000
FDF7C000
FDF7C000
FDF7C000
FDF7C000
FDF7C000
00000000
FC001F80
FC001F80
FC001F80
FC001F80
FC001F80
FC001F80
FC001F80
00000000
FC001F80
FC001F80
FC001F80
FC001F80
FC001F80
FC001F80
FC001F80
00000000
FDF7C000
FDF7C000
FDF7C000
FDF7C000
FDF7C000
FDF7C000
FDF7C000
ENDCHAR
STARTCHAR 0063
ENCODING 99
SWIDTH 588 0
DWIDTH 30 0
BBX 24 31 3 1
BITMAP
03F7DF
03F7DF
03F7DF
03F7DF
03F7DF
03F7DF
03F7DF
000000
F80000
F80000
F80000
F80000
F80000
F80000
F80000
000000
F80000
F80000
F80000
F80000
F80000
F80000
F80000
000000
03F7DF
03F7DF
03F7DF
03F7DF
03F7DF
03F7DF
03F7DF
ENDCHAR
STARTCHAR 0064
ENCODING 100
SWIDTH 588 0
DWIDTH 30 0
BBX 25 39 3 1
BITMAP
00001F80
00001F80
00001F80
00001F80
00001F80
00001F80
00001F80
00000000
03F7DF80
03F7DF80
03F7DF80
03F7DF80
03F7DF80
03F7DF80
03F7DF80
00000000
F8001F80
F8001F80
F8001F80
F8001F80
F8001F80
F8001F80
F8001F80
00000000
F8001F80
F8001F80
F8001F80
F8001F80
F8001F80
F8001F80
F8001F80
00000000
03F7DF80
03F7DF80
03F7DF80
03F7DF80
03F7DF80
03F7DF80
03F7DF80
ENDCHAR
STARTCHAR 0065
ENCODING 101
SWIDTH 588 0
DWIDTH 30 0
BBX 25 39 3 1
BITMAP
01F7C000
01F7C000
01F7C000
01F7C000
01F7C000
01F7C000
01F7C000
00000000
FC001F80
FC001F80
FC001F80
FC001F80
FC001F80
FC001F80
FC001F80
00000000
FDF7DF80
FDF7DF80
FDF7DF80
FDF7DF80
FDF7DF80
FDF7DF80
FDF7DF80
00000000
FC000000
FC000000
FC000000
FC000000
FC000000
FC000000
FC000000
00000000
01F7C000
01F7C000
01F7C000
01F7C000
01F7C000
01F7C000
01F7C000
ENDCHAR
STARTCHAR 0066
ENCODING 102
SWIDTH 470 0
DWIDTH 24 0
BBX 18 39 3 1
BITMAP
0007C0
0007C0
0007C0
0007C0
0007C0
0007C0
0007C0
000000
01F000
01F000
01F000
01F000
01F000
01F000
01F000
000000
FDF7C0
FDF7C0
FDF7C0
FDF7C0
FDF7C0
FDF7C0
FDF7C0
000000
01F000
01F000
01F000
01F000
01F000
01F000
01F000
000000
01F000
01F000
01F000
01F000
01F000
01F000
01F000
ENDCHAR
STARTCHAR 0067
ENCODING 103
SWIDTH 607 0
DWIDTH 31 0
BBX 25 39 3 1
BITMAP
01F7DF80
01F7DF80
01F7DF80
01F7DF80
01F7DF80
01F7DF80
01F7DF80
00000000
FC001F80
FC001F80
FC001F80
FC001F80
FC001F80
FC001F80
FC001F80
00000000
FDF7DF80
FDF7DF80
FDF7DF80
FDF7DF80
FDF7DF80
FDF7DF80
FDF7DF80
00000000
00001F80
00001F80
00001F80
00001F80
00001F80
00001F80
00001F80
00000000
01F7C000
01F7C000
01F7C000
01F7C000
01F7C000
01F7C000
01F7C000
ENDCHAR
STARTCHAR 0068
ENCODING 104
SWIDTH 588 0
DWIDTH 30 0
BBX 25 39 3 1
BITMAP
FC000000
FC000000
FC000000
FC000000
FC000000
FC000000
FC000000
00000000
FDF7E000
FDF7E000
FDF7E000
FDF7E000
FDF7E000
FDF7E000
FDF7E000
00000000
FC001F80
FC001F80
FC001F80
FC001F80
FC001F80
FC001F80
FC001F80
00000000
FC001F80
FC001F80
FC001F80
FC001F80
FC001F80
FC001F80
FC001F80
00000000
FC001F80
FC001F80
FC001F80
FC001F80
FC001F80
FC001F80
FC001F80
ENDCHAR
STARTCHAR 0069
ENCODING 105
SWIDTH 431 0
DWIDTH 22 0
BBX 5 39 8 1
BITMAP
F8
F8
F8
F8
F8
F8
F8
00
00
00
00
00
00
00
00
00
F8
F8
F8
F8
F8
F8
F8
00
F8
F8
F8
F8
F8
F8
F8
00
F8
F8
F8
F8
F8
F8
F8
ENDCHAR
STARTCHAR 006A
ENCODING 106
SWIDTH 588 0
DWIDTH 30 0
BBX 25 39 2 1
BITMAP
00001F80
00001F80
00001F80
00001F80
00001F80
00001F80
00001F80
00000000
00000000
00000000
00000000
00000000
00000000
00000000
00000000
00000000
00001F80
00001F80
00001F80
00001F80
00001F80
00001F80
00001F80
00000000
FC001F80
FC001F80
FC001F80
FC001F80
FC001F80
FC001F80
FC001F80
00000000
01F7E000
01F7E000
01F7E000
01F7E000
01F7E000
01F7E000
01F7E000
ENDCHAR
STARTCHAR 006B
ENCODING 107
SWIDTH 705 0
DWIDTH 36 0
BBX 31 39 2 1
BITMAP
FC000000
FC000000
FC000000
FC000000
FC000000
FC000000
FC000000
00000000
FC001F80
FC001F80
FC001F80
FC001F80
FC001F80
FC001F80
FC001F80
00000000
FC07E000
FC07E000
FC07E000
FC07E000
FC07E000
FC07E000
FC07E000
00000000
FDF01F80
FDF01F80
FDF01F80
FDF01F80
FDF01F80
FDF01F80
FDF01F80
00000000
FC00003E
FC00003E
FC00003E
FC00003E
FC00003E
FC00003E
FC00003E
ENDCHAR
STARTCHAR 006C
ENCODING 108
SWIDTH 431 0
DWIDTH 22 0
BBX 12 39 3 1
BITMAP
FBF0
FBF0
FBF0
FBF0
FBF0
FBF0
FBF0
0000
03F0
03F0
03F0
03F0
03F0
03F0
03F0
0000
03F0
03F0
03F0
03F0
03F0
03F0
03F0
0000
03F0
03F0
03F0
03F0
03F0
03F0
03F0
0000
03F0
03F0
03F0
03F0
03F0
03F0
03F0
ENDCHAR
STARTCHAR 006D
ENCODING 109
SWIDTH 705 0
DWIDTH 36 0
BBX 31 31 2 1
BITMAP
01F01F80
01F01F80
01F01F80
01F01F80
01F01F80
01F01F80
01F01F80
00000000
FC07E03E
FC07E03E
FC07E03E
FC07E03E
FC07E03E
FC07E03E
FC07E03E
00000000
FC07E03E
FC07E03E
FC07E03E
FC07E03E
FC07E03E
FC07E03E
FC07E03E
00000000
FC00003E
FC00003E
FC00003E
FC00003E
FC00003E
FC00003E
FC00003E
ENDCHAR
STARTCHAR 006E
ENCODING 110
SWIDTH 588 0
DWIDTH 30 0
BBX 24 31 3 1
BITMAP
FDF7C0
FDF7C0
FDF7C0
FDF7C0
FDF7C0
FDF7C0
FDF7C0
000000
FC001F
FC001F
FC001F
FC001F
FC001F
FC001F
FC001F
000000
FC001F
FC001F
FC001F
FC001F
FC001F
FC001F
FC001F
000000
FC001F
FC001F
FC001F
FC001F
FC001F
FC001F
FC001F
ENDCHAR
STARTCHAR 006F
ENCODING 111
SWIDTH 588 0
DWIDTH 30 0
BBX 25 31 3 1
BITMAP
03F7C000
03F7C000
03F7C000
03F7C000
03F7C000
03F7C000
03F7C000
00000000
F8001F80
F8001F80
F8001F80
F8001F80
F8001F80
F8001F80
F8001F80
00000000
F8001F80
F8001F80
F8001F80
F8001F80
F8001F80
F8001F80
F8001F80
00000000
03F7C000
03F7C000
03F7C000
03F7C000
03F7C000
03F7C000
03F7C000
ENDCHAR
STARTCHAR 0070
ENCODING 112
SWIDTH 588 0
DWIDTH 30 0
BBX 25 31 3 1
BITMAP
FDF7C000
FDF7C000
FDF7C000
FDF7C000
FDF7C000
FDF7C000
FDF7C000
00000000
FC001F80
FC001F80
FC001F80
FC001F80
FC001F80
FC001F80
FC001F80
00000000
FDF7C000
FDF7C000
FDF7C000
FDF7C000
FDF7C000
FDF7C000
FDF7C000
00000000
FC000000
FC000000
FC000000
FC000000
FC000000
FC000000
FC000000
ENDCHAR
STARTCHAR 0071
ENCODING 113
SWIDTH 588 0
DWIDTH 30 0
BBX 25 31 3 1
BITMAP
03F7DF80
03F7DF80
03F7DF80
03F7DF80
03F7DF80
03F7DF80
03F7DF80
00000000
FC001F80
FC001F80
FC001F80
FC001F80
FC001F80
FC001F80
FC001F80
00000000
03F7DF80
03F7DF80
03F7DF80
03F7DF80
03F7DF80
03F7DF80
03F7DF80
00000000
00001F80
00001F80
00001F80
00001F80
00001F80
00001F80
00001F80
ENDCHAR
STARTCHAR 0072
ENCODING 114
SWIDTH 313 0
DWIDTH 16 0
BBX 12 31 3 1
BITMAP
FBF0
FBF0
FBF0
FBF0
FBF0
FBF0
FBF0
0000
F800
F800
F800
F800
F800
F800
F800
0000
F800
F800
F800
F800
F800
F800
F800
0000
F800
F800
F800
F800
F800
F800
F800
ENDCHAR
STARTCHAR 0073
ENCODING 115
SWIDTH 529 0
DWIDTH 27 0
BBX 18 31 4 1
BITMAP
01F7C0
01F7C0
01F7C0
01F7C0
01F7C0
01F7C0
01F7C0
000000
FC0000
FC0000
FC0000
FC0000
FC0000
FC0000
FC0000
000000
01F7C0
01F7C0
01F7C0
01F7C0
01F7C0
01F7C0
01F7C0
000000
FDF000
FDF000
FDF000
FDF000
FDF000
FDF000
FDF000
ENDCHAR
STARTCHAR 0074
ENCODING 116
SWIDTH 450 0
DWIDTH 23 0
BBX 19 31 2 1
BITMAP
01F000
01F000
01F000
01F000
01F000
01F000
01F000
000000
FDF7E0
FDF7E0
FDF7E0
FDF7E0
FDF7E0
FDF7E0
FDF7E0
000000
01F000
01F000
01F000
01F000
01F000
01F000
01F000
000000
0007E0
0007E0
0007E0
0007E0
0007E0
0007E0
0007E0
ENDCHAR
STARTCHAR 0075
ENCODING 117
SWIDTH 686 0
DWIDTH 35 0
BBX 31 31 2 1
BITMAP
FC001F80
FC001F80
FC001F80
FC001F80
FC001F80
FC001F80
FC001F80
00000000
FC001F80
FC001F80
FC001F80
FC001F80
FC001F80
FC001F80
FC001F80
00000000
FC001F80
FC001F80
FC001F80
FC001F80
FC001F80
FC001F80
FC001F80
00000000
01F7E03E
01F7E03E
01F7E03E
01F7E03E
01F7E03E
01F7E03E
01F7E03E
ENDCHAR
STARTCHAR 0076
ENCODING 118
SWIDTH 705 0
DWIDTH 36 0
BBX 31 23 2 1
BITMAP
FC00003E
FC00003E
FC00003E
FC00003E
FC00003E
FC00003E
FC00003E
00000000
01F01F80
01F01F80
01F01F80
01F01F80
01F01F80
01F01F80
01F01F80
00000000
0007E000
0007E000
0007E000
0007E000
0007E000
0007E000
0007E000
ENDCHAR
STARTCHAR 0077
ENCODING 119
SWIDTH 705 0
DWIDTH 36 0
BBX 31 31 2 1
BITMAP
FC00003E
FC00003E
FC00003E
FC00003E
FC00003E
FC00003E
FC00003E
00000000
FC07E03E
FC07E03E
FC07E03E
FC07E03E
FC07E03E
FC07E03E
FC07E03E
00000000
FC07E03E
FC07E03E
FC07E03E
FC07E03E
FC07E03E
FC07E03E
FC07E03E
00000000
01F01F80
01F01F80
01F01F80
01F01F80
01F01F80
01F01F80
01F01F80
ENDCHAR
STARTCHAR 0078
ENCODING 120
SWIDTH 588 0
DWIDTH 30 0
BBX 25 31 3 1
BITMAP
FC001F80
FC001F80
FC001F80
FC001F80
FC001F80
FC001F80
FC001F80
00000000
03F00000
03F00000
03F00000
03F00000
03F00000
03F00000
03F00000
00000000
0007C000
0007C000
0007C000
0007C000
0007C000
0007C000
0007C000
00000000
FC001F80
FC001F80
FC001F80
FC001F80
FC001F80
FC001F80
FC001F80
ENDCHAR
STARTCHAR 0079
ENCODING 121
SWIDTH 588 0
DWIDTH 30 0
BBX 25 31 3 1
BITMAP
FC001F80
FC001F80
FC001F80
FC001F80
FC001F80
FC001F80
FC001F80
00000000
FDF7DF80
FDF7DF80
FDF7DF80
FDF7DF80
FDF7DF80
FDF7DF80
FDF7DF80
00000000
00001F80
00001F80
00001F80
00001F80
00001F80
00001F80
00001F80
00000000
FDF7C000
FDF7C000
FDF7C000
FDF7C000
FDF7C000
FDF7C000
FDF7C000
ENDCHAR
STARTCHAR 007A
ENCODING 122
SWIDTH 588 0
DWIDTH 30 0
BBX 25 31 3 1
BITMAP
FDF7DF80
FDF7DF80
FDF7DF80
FDF7DF80
FDF7DF80
FDF7DF80
FDF7DF80
00000000
0007C000
0007C000
0007C000
0007C000
0007C000
0007C000
0007C000
00000000
01F00000
01F00000
01F00000
01F00000
01F00000
01F00000
01F00000
00000000
FDF7DF80
FDF7DF80
FDF7DF80
FDF7DF80
FDF7DF80
FDF7DF80
FDF7DF80
ENDCHAR
STARTCHAR 007B
ENCODING 123
SWIDTH 705 0
DWIDTH 36 0
BBX 25 39 2 1
BITMAP
0007DF80
0007DF80
0007DF80
0007DF80
0007DF80
0007DF80
0007DF80
00000000
01F00000
01F00000
01F00000
01F00000
01F00000
01F00000
01F00000
00000000
FDF00000
FDF00000
FDF00000
FDF00000
FDF00000
FDF00000
FDF00000
00000000
01F00000
01F00000
01F00000
01F00000
01F00000
01F00000
01F00000
00000000
0007DF80
0007DF80
0007DF80
0007DF80
0007DF80
0007DF80
0007DF80
ENDCHAR
STARTCHAR 007C
ENCODING 124
SWIDTH 705 0
DWIDTH 36 0
BBX 6 39 15 1
BITMAP
FC
FC
FC
FC
FC
FC
FC
00
FC
FC
FC
FC
FC
FC
FC
00
FC
FC
FC
FC
FC
FC
FC
00
FC
FC
FC
FC
FC
FC
FC
00
FC
FC
FC
FC
FC
FC
FC
ENDCHAR
STARTCHAR 007D
ENCODING 125
SWIDTH 705 0
DWIDTH 36 0
BBX 24 39 9 1
BITMAP
FDF000
FDF000
FDF000
FDF000
FDF000
FDF000
FDF000
000000
000FC0
000FC0
000FC0
000FC0
000FC0
000FC0
000FC0
000000
000FDF
000FDF
000FDF
000FDF
000FDF
000FDF
000FDF
000000
000FC0
000FC0
000FC0
000FC0
000FC0
000FC0
000FC0
000000
FDF000
FDF000
FDF000
FDF000
FDF000
FDF000
FDF000
ENDCHAR
STARTCHAR 007E
ENCODING 126
SWIDTH 686 0
DWIDTH 35 0
BBX 24 15 8 25
BITMAP
03F01F
03F01F
03F01F
03F01F
03F01F
03F01F
03F01F
000000
F80FC0
F80FC0
F80FC0
F80FC0
F80FC0
F80FC0
F80FC0
ENDCHAR
STARTCHAR 00A0
ENCODING 160
SWIDTH 509 0
DWIDTH 26 0
BBX 0 0 0 0
BITMAP
ENDCHAR
STARTCHAR 00C4
ENCODING 196
SWIDTH 705 0
DWIDTH 36 0
BBX 31 39 2 1
BITMAP
FDF7FFBE
FDF7FFBE
FDF7FFBE
FDF7FFBE
FDF7FFBE
FDF7FFBE
FDF7FFBE
00000000
FDF7FFBE
FDF7FFBE
FDF7FFBE
FDF7FFBE
FDF7FFBE
FDF7FFBE
FDF7FFBE
00000000
FDF7FFBE
FDF7FFBE
FDF7FFBE
FDF7FFBE
FDF7FFBE
FDF7FFBE
FDF7FFBE
00000000
FDF7FFBE
FDF7FFBE
FDF7FFBE
FDF7FFBE
FDF7FFBE
FDF7FFBE
FDF7FFBE
00000000
FDF7FFBE
FDF7FFBE
FDF7FFBE
FDF7FFBE
FDF7FFBE
FDF7FFBE
FDF7FFBE
ENDCHAR
STARTCHAR 00D7
ENCODING 215
SWIDTH 0 0
DWIDTH 0 0
BBX 0 0 0 0
BITMAP
ENDCHAR
STARTCHAR 00FD
ENCODING 253
SWIDTH 0 0
DWIDTH 0 0
BBX 0 0 0 0
BITMAP
ENDCHAR
STARTCHAR 0141
ENCODING 321
SWIDTH 0 0
DWIDTH 0 0
BBX 0 0 0 0
BITMAP
ENDCHAR
ENDFONT
